<svg width="67" height="44" viewBox="0 0 67 44" fill="none" xmlns="http://www.w3.org/2000/svg">
<path d="M11.4837 0.0583496L0.848541 17.0747H22.1189L11.4837 0.0583496Z" fill="#E4E4E4"/>
<rect x="27.119" y="0.0583496" width="17.0163" height="17.0163" fill="#D2D2D2"/>
<circle cx="57.6433" cy="8.56651" r="8.50816" fill="#E4E4E4"/>
<path d="M9.9422 40.0747H7.74493L3.46759 33.0581V40.0747H1.27032V29.4106H3.46759L7.75226 36.4419V29.4106H9.9422V40.0747ZM11.3924 36.0391C11.3924 35.2529 11.5438 34.5522 11.8465 33.937C12.1492 33.3218 12.5838 32.8457 13.1502 32.5088C13.7215 32.1719 14.3831 32.0034 15.1351 32.0034C16.2044 32.0034 17.076 32.3306 17.7498 32.9849C18.4285 33.6392 18.8069 34.5278 18.8851 35.6509L18.8997 36.1929C18.8997 37.4087 18.5604 38.3853 17.8817 39.1226C17.2029 39.855 16.2923 40.2212 15.1497 40.2212C14.0071 40.2212 13.0941 39.855 12.4105 39.1226C11.7318 38.3901 11.3924 37.394 11.3924 36.1343V36.0391ZM13.5091 36.1929C13.5091 36.9448 13.6507 37.521 13.9339 37.9214C14.2171 38.3169 14.6224 38.5146 15.1497 38.5146C15.6624 38.5146 16.0628 38.3193 16.3509 37.9287C16.639 37.5332 16.783 36.9033 16.783 36.0391C16.783 35.3018 16.639 34.7305 16.3509 34.3252C16.0628 33.9199 15.6575 33.7173 15.1351 33.7173C14.6175 33.7173 14.2171 33.9199 13.9339 34.3252C13.6507 34.7256 13.5091 35.3481 13.5091 36.1929ZM26.4144 40.0747H24.2171V29.4106H26.4144V40.0747ZM30.3035 32.1499L30.3694 33.0361C30.931 32.3477 31.6902 32.0034 32.6473 32.0034C33.6678 32.0034 34.3685 32.4062 34.7493 33.2119C35.306 32.4062 36.0994 32.0034 37.1297 32.0034C37.9891 32.0034 38.6287 32.2549 39.0486 32.7578C39.4686 33.2559 39.6785 34.0078 39.6785 35.0137V40.0747H37.5545V35.021C37.5545 34.5718 37.4666 34.2446 37.2908 34.0396C37.1151 33.8296 36.805 33.7246 36.3607 33.7246C35.7259 33.7246 35.2864 34.0273 35.0423 34.6328L35.0496 40.0747H32.9329V35.0283C32.9329 34.5693 32.8426 34.2373 32.6619 34.0322C32.4813 33.8271 32.1736 33.7246 31.7391 33.7246C31.1385 33.7246 30.7039 33.9736 30.4354 34.4717V40.0747H28.3187V32.1499H30.3035ZM45.9041 40.0747C45.8065 39.8843 45.7357 39.6475 45.6917 39.3643C45.179 39.9355 44.5125 40.2212 43.6922 40.2212C42.9158 40.2212 42.2713 39.9966 41.7586 39.5474C41.2508 39.0981 40.9969 38.5317 40.9969 37.8481C40.9969 37.0083 41.3069 36.3638 41.9271 35.9146C42.5521 35.4653 43.4529 35.2383 44.6297 35.2334H45.6038V34.7793C45.6038 34.4131 45.5086 34.1201 45.3182 33.9004C45.1326 33.6807 44.8372 33.5708 44.4319 33.5708C44.0755 33.5708 43.7947 33.6562 43.5897 33.8271C43.3895 33.998 43.2894 34.2324 43.2894 34.5303H41.1727C41.1727 34.0713 41.3143 33.6465 41.5975 33.2559C41.8807 32.8652 42.2811 32.5601 42.7986 32.3403C43.3162 32.1157 43.8973 32.0034 44.5418 32.0034C45.5184 32.0034 46.2923 32.25 46.8636 32.7432C47.4398 33.2314 47.7278 33.9199 47.7278 34.8086V38.2437C47.7327 38.9956 47.8377 39.5645 48.0428 39.9502V40.0747H45.9041ZM44.1536 38.6025C44.4661 38.6025 44.7542 38.5342 45.0179 38.3975C45.2816 38.2559 45.4769 38.0679 45.6038 37.8335V36.4712H44.8128C43.7532 36.4712 43.1893 36.8374 43.1209 37.5698L43.1136 37.6943C43.1136 37.958 43.2064 38.1753 43.3919 38.3462C43.5775 38.5171 43.8314 38.6025 44.1536 38.6025ZM49.0462 36.0537C49.0462 34.8379 49.3343 33.8589 49.9105 33.1167C50.4915 32.3745 51.2728 32.0034 52.2542 32.0034C53.1234 32.0034 53.7996 32.3013 54.283 32.897L54.3709 32.1499H56.2899V39.811C56.2899 40.5044 56.1312 41.1074 55.8138 41.6201C55.5013 42.1328 55.0594 42.5234 54.4881 42.792C53.9168 43.0605 53.2479 43.1948 52.4813 43.1948C51.9002 43.1948 51.3338 43.0776 50.782 42.8433C50.2303 42.6138 49.8128 42.3159 49.5296 41.9497L50.4671 40.6606C50.9944 41.2515 51.6341 41.5469 52.386 41.5469C52.9476 41.5469 53.3846 41.3955 53.6971 41.0928C54.0096 40.7949 54.1658 40.3701 54.1658 39.8184V39.3936C53.6776 39.9453 53.0355 40.2212 52.2396 40.2212C51.2874 40.2212 50.5159 39.8501 49.9251 39.1079C49.3392 38.3608 49.0462 37.3721 49.0462 36.1416V36.0537ZM51.1629 36.2075C51.1629 36.9253 51.3069 37.4893 51.595 37.8994C51.8831 38.3047 52.2786 38.5073 52.7816 38.5073C53.4261 38.5073 53.8875 38.2656 54.1658 37.7822V34.4497C53.8826 33.9663 53.4261 33.7246 52.7962 33.7246C52.2884 33.7246 51.888 33.9321 51.595 34.3472C51.3069 34.7622 51.1629 35.3823 51.1629 36.2075ZM61.5706 40.2212C60.4085 40.2212 59.4612 39.8647 58.7288 39.1519C58.0013 38.439 57.6375 37.4893 57.6375 36.3027V36.0977C57.6375 35.3018 57.7913 34.5913 58.0989 33.9663C58.4066 33.3364 58.8411 32.853 59.4026 32.5161C59.9691 32.1743 60.6136 32.0034 61.3362 32.0034C62.4202 32.0034 63.2723 32.3452 63.8924 33.0288C64.5174 33.7124 64.8299 34.6816 64.8299 35.9365V36.8008H59.7835C59.8519 37.3184 60.0569 37.7334 60.3987 38.0459C60.7454 38.3584 61.1824 38.5146 61.7098 38.5146C62.5252 38.5146 63.1624 38.2192 63.6214 37.6284L64.6614 38.793C64.3441 39.2422 63.9144 39.5938 63.3724 39.8477C62.8304 40.0967 62.2298 40.2212 61.5706 40.2212ZM61.3289 33.7173C60.909 33.7173 60.5672 33.8589 60.3035 34.1421C60.0447 34.4253 59.8787 34.8306 59.8055 35.3579H62.7498V35.1895C62.7401 34.7207 62.6131 34.3594 62.369 34.1055C62.1248 33.8467 61.7781 33.7173 61.3289 33.7173Z" fill="#E4E4E4"/>
</svg>
