<svg width="1024" height="1024" viewBox="0 0 1024 1024" fill="none" xmlns="http://www.w3.org/2000/svg">
<rect width="1024" height="1024" rx="250" fill="#FF1D6C"/>
<path d="M482.124 865.117C480.484 858.09 477.767 846.769 475.222 835.406C473.734 828.734 473.755 821.478 470.973 815.369C466.272 804.986 461.742 793.498 453.719 785.805C444.877 777.319 432.821 771.085 421.045 766.519C391.951 755.239 377.177 733.827 368.788 705.909C363.051 686.832 355.071 668.359 347.436 649.866C346.034 646.488 341.44 644.362 338.313 641.672C326.257 631.289 327.443 603.246 341.031 593.489C336.502 589.298 335.79 585.837 336.782 578.539C338.27 567.614 341.074 554.938 335.035 542.491C331.584 535.381 334.906 524.435 337.17 515.699C340.125 504.273 350.283 495.788 350.542 482.423C350.693 475.063 357.422 467.766 361.304 460.531C366.804 450.315 372.627 440.265 377.932 429.966C383.648 418.853 386.667 407.24 397.947 398.128C405.625 391.936 406.056 377.696 410.607 367.417C413.928 359.932 418.91 353.135 422.792 345.838C430.794 330.826 438.407 315.606 446.624 300.719C447.681 298.822 451.498 297.55 454.108 297.425C460.384 297.133 463.748 294.715 466.013 288.752C473.842 268.111 481.347 247.261 491.074 227.454C494.697 220.073 503.691 214.84 510.959 209.586C515.617 206.229 521.592 204.561 527.005 202.205C536.085 198.223 544.906 193.448 554.352 190.592C563.626 187.777 570.269 184.608 571.649 173.829C573.224 161.59 591.987 147.162 604.41 148.038C607.796 148.288 611.29 152.125 614.007 154.96C617.307 158.421 620.024 162.445 622.699 166.427C632.512 181.064 649.787 178.061 663.698 183.086C668.313 184.754 674.158 188.153 675.582 192.072C678.364 199.745 682.44 203.727 690.7 204.082C691.951 204.144 693.137 205.333 694 205.791C685.524 213.443 678.428 220.615 670.513 226.766C658.565 236.044 658.069 247.699 661.153 260.646C662.426 265.984 662.965 271.467 664.086 276.826C664.906 280.808 665.488 284.999 667.3 288.564C671.398 296.549 680.499 303.972 668.572 312.645C667.861 331.973 647.674 345.025 650.348 365.52C650.542 367.062 649.744 369.606 648.558 370.273C635.661 377.529 634.625 391.311 629.147 402.611C628.694 403.549 627.616 404.821 627.918 405.405C634.216 417.289 626.538 428.756 626.904 440.453C626.969 442.517 627.638 444.831 626.904 446.604C616.487 471.415 616.38 498.081 612.67 523.997C610.06 542.261 608.508 560.317 598.867 576.767C597.379 579.29 597.314 582.876 597.379 585.962C597.875 608.625 588.213 628.161 577.515 647.406C572.555 656.329 570.851 666.712 560.758 673.28C556.789 675.865 558.105 685.06 554.891 689.939C550.578 696.527 543.439 701.385 538.932 707.89C533.216 716.126 526.897 724.778 524.46 734.119C519.737 752.425 516.696 771.231 514.604 790.016C513.482 800.128 515.596 810.616 516.523 820.895C517.127 827.775 519.025 834.655 518.766 841.452C518.572 846.164 515.661 850.772 513.978 855.421C512.749 855.296 511.498 855.171 510.269 855.046C512.878 861.572 515.488 868.077 518.68 876C506.128 872.268 496.185 869.307 482.124 865.117Z" fill="white"/>
</svg>
